<svg width="138" height="139" viewBox="0 0 138 139" fill="none" xmlns="http://www.w3.org/2000/svg">
<!-- <rect width="137.733" height="137.733" transform="translate(0.0777588 0.71106)" fill='#efeef3'/> -->
<path d="M11.5555 69.5777L22.6103 58.523C48.1828 32.9505 89.7061 32.9505 115.279 58.523L126.333 69.5777L115.279 80.6325C89.7061 106.205 48.1828 106.205 22.6103 80.6325L11.5555 69.5777Z" fill="#63B25F"/>
<path d="M68.9444 99.8247C85.7141 99.8247 102.484 93.4273 115.279 80.6325L126.333 69.5777L115.279 58.523C102.484 45.7281 85.7141 39.3307 68.9444 39.3307" fill="#064402"/>
<path d="M68.9444 88.3783C79.3271 88.3783 87.7439 79.9615 87.7439 69.5788C87.7439 59.1961 79.3271 50.7793 68.9444 50.7793C58.5618 50.7793 50.145 59.1961 50.145 69.5788C50.145 79.9615 58.5618 88.3783 68.9444 88.3783Z" fill="#064402"/>
<path d="M68.9444 88.3783C79.3271 88.3783 87.7439 79.9615 87.7439 69.5788C87.7439 59.1961 79.3271 50.7793 68.9444 50.7793" fill="#63B25F"/>
<path d="M78.3441 53.2972C78.3441 53.2972 71.7222 76.6439 51.0605 75.3824C51.0605 75.3824 45.999 61.525 59.5439 53.2972C59.5439 53.2972 68.5949 47.5139 78.3441 53.2972Z" fill="#036B00"/>
</svg>
